<svg id="Capa_1" enable-background="new 0 0 512 512" height="512" viewBox="0 0 512 512" width="512" xmlns="http://www.w3.org/2000/svg"><g id="Lucky_number"><g><path d="m286 512h-120c-8.291 0-15-6.709-15-15 0-84.771 61.465-189.141 110.845-273.003 23.525-39.946 46.011-78.12 54.053-101.997h-89.898c-12.085 0-23.291 4.673-31.553 13.154-8.774 8.555-13.447 19.761-13.447 31.846 0 8.291-6.709 15-15 15h-60c-8.291 0-15-6.709-15-15v-152c0-8.291 6.709-15 15-15h60c8.291 0 15 6.709 15 15v.967c14.81-8.174 35.391-15.967 60-15.967 37.69 0 69.697 10.884 90 20.068v-5.068c0-8.291 6.709-15 15-15h60c8.291 0 15 6.709 15 15v92c0 2.344-.557 4.658-1.611 6.768-1.187 2.343-118.389 236.191-118.389 383.232 0 8.291-6.709 15-15 15z"/></g></g></svg>