<?xml version="1.0" encoding="iso-8859-1"?>
<!-- Generator: Adobe Illustrator 19.0.0, SVG Export Plug-In . SVG Version: 6.00 Build 0)  -->
<svg version="1.1" id="Capa_1" xmlns="http://www.w3.org/2000/svg" xmlns:xlink="http://www.w3.org/1999/xlink" x="0px" y="0px"
	 viewBox="0 0 218 218" style="enable-background:new 0 0 218 218;" xml:space="preserve">
<g>
	<polygon points="103,41 133,41 133,73 167,73 167,7 0,7 0,73 34,73 34,41 64,41 64,177 48,177 48,211 120,211 120,177 103,177 	"/>
	<polygon points="118,90 118,132 142,132 142,114 155,114 155,187 145,187 145,211 191,211 191,187 182,187 182,114 194,114 
		194,132 218,132 218,90 	"/>
</g>
<g>
</g>
<g>
</g>
<g>
</g>
<g>
</g>
<g>
</g>
<g>
</g>
<g>
</g>
<g>
</g>
<g>
</g>
<g>
</g>
<g>
</g>
<g>
</g>
<g>
</g>
<g>
</g>
<g>
</g>
</svg>
